# xmcd
#
# Track frame offsets:
#	150
#	16052
#	32981
#	46324
#	62468
#	76813
#	90422
#	103297
#	119645
#	136727
#
# Disc length: 2030 seconds
#
# Revision: 1
# Processed by: cddbd v1.4PL0 Copyright (c) Steve Scherf et al.
# Submitted via: audiograbber 1.80
#
DISCID=7707ec0a
DTITLE=Kim Swartz - Lykkelig and fri ?
DYEAR=1900
DGENRE=
TTITLE0=Lykkelig and fri?
TTITLE1=Mig and johnny
TTITLE2=månedans
TTITLE3=det' ikke nok at lade som om
TTITLE4=vi fanger laks
TTITLE5=en helt almind´lig mand
TTITLE6=gadekryds
TTITLE7=jeg har jo dig
TTITLE8=den gamle ostemand
TTITLE9=big star
EXTD=
EXTT0=
EXTT1=
EXTT2=
EXTT3=
EXTT4=
EXTT5=
EXTT6=
EXTT7=
EXTT8=
EXTT9=
PLAYORDER=
